<?xml version="1.0" encoding="UTF-8" standalone="no"?>
<!-- Created with Inkscape (http://www.inkscape.org/) -->

<svg
   xmlns:dc="http://purl.org/dc/elements/1.1/"
   xmlns:cc="http://creativecommons.org/ns#"
   xmlns:rdf="http://www.w3.org/1999/02/22-rdf-syntax-ns#"
   xmlns:svg="http://www.w3.org/2000/svg"
   xmlns="http://www.w3.org/2000/svg"
   xmlns:sodipodi="http://sodipodi.sourceforge.net/DTD/sodipodi-0.dtd"
   xmlns:inkscape="http://www.inkscape.org/namespaces/inkscape"
   id="svg3053"
   version="1.1"
   inkscape:version="0.48.2 r9819"
   width="50"
   height="90"
   sodipodi:docname="plantagonewtiny.svg">
  <metadata
     id="metadata3059">
    <rdf:RDF>
      <cc:Work
         rdf:about="">
        <dc:format>image/svg+xml</dc:format>
        <dc:type
           rdf:resource="http://purl.org/dc/dcmitype/StillImage" />
        <dc:title></dc:title>
      </cc:Work>
    </rdf:RDF>
  </metadata>
  <defs
     id="defs3057" />
  <sodipodi:namedview
     pagecolor="#ffffff"
     bordercolor="#666666"
     borderopacity="1"
     objecttolerance="10"
     gridtolerance="10"
     guidetolerance="10"
     inkscape:pageopacity="0"
     inkscape:pageshadow="2"
     inkscape:window-width="1280"
     inkscape:window-height="746"
     id="namedview3055"
     showgrid="false"
     inkscape:zoom="5.1946212"
     inkscape:cx="100.72043"
     inkscape:cy="44.4714"
     inkscape:window-x="0"
     inkscape:window-y="26"
     inkscape:window-maximized="1"
     inkscape:current-layer="svg3053"
     fit-margin-top="0"
     fit-margin-left="0"
     fit-margin-right="0"
     fit-margin-bottom="0" />
  <path
     style="fill:#88AC82;fill-opacity:1;stroke:none;"
     d="m 29.413589,39.336546 c -0.121531,1.072981 -0.0087,2.063186 0.01719,3.078083 0.08168,2.56712 0.141149,4.509888 0.410203,5.542703 0.599328,-0.626491 0.695365,-0.8602 1.840785,-1.758313 2.65319,-2.066166 5.401876,-6.318795 9.127271,-7.922962 1.978844,-1.456899 3.520114,-3.986612 4.736874,-0.246454 1.430061,3.934074 3.958464,7.541178 4.26111,11.797605 0.03737,3.80323 0.698412,7.687462 -0.663528,11.351023 -0.145091,4.221998 -3.119557,7.253078 -6.73056,8.938678 -3.237935,1.33991 -6.726795,1.83492 -9.982843,3.25963 -1.150501,0.67044 -5.34931,3.98105 -1.781979,0.33094 0.900083,-0.82906 1.284235,-0.76024 3.083684,-1.30564 2.818657,-1.62017 5.876838,-1.52813 7.258753,-3.29172 -0.967756,-0.38784 3.959459,-2.65439 4.127759,-4.732103 3.021988,-4.237665 -5.610446,5.771123 -3.22014,0.892943 2.289119,-2.81504 3.497657,-6.061874 4.603395,-9.447122 0.561077,-1.558711 1.64579,-7.791703 0.02386,-3.338702 -1.002337,4.137541 -3.45285,7.766504 -6.056532,11.035543 -1.658157,1.926981 -2.335587,2.080611 -0.79149,-0.233891 1.912188,-3.419254 3.206237,-7.125471 4.161321,-10.930576 1.632425,-1.508552 1.081985,-7.789979 0.03338,-2.747706 -1.007175,2.221235 -2.782821,7.639318 -3.882728,7.531631 0.899636,-4.313529 2.609191,-8.550629 2.924292,-13.071608 0.81784,-2.014765 0.815685,-8.741725 0.01843,-3.914684 -0.751505,5.278383 -3.035738,10.133549 -4.841516,15.092193 -0.958968,2.155257 -3.73166,8.424049 -2.129984,2.888946 0.226137,-3.254772 1.483024,-9.519034 0.976383,-12.321847 -2.544688,3.672072 -2.508941,9.957232 -4.29907,13.925282 -0.34432,2.412425 -1.614624,3.361901 -0.821407,0.341045 0.271317,-4.756076 0.501129,-9.53631 1.776045,-14.148257 -1.501241,1.690361 -2.632603,7.511705 -3.47725,6.919264 -0.136098,0.554583 -0.07149,1.3645 -0.122639,1.79173 0.741717,0.868817 1.63302,-4.664467 1.244451,-0.115031 -0.07461,2.479115 -0.749368,8.658519 0.616755,9.369219 1.394961,-2.441472 2.640319,-9.527235 3.521572,-10.229865 -1.150959,3.685676 -0.884285,7.350141 -1.603777,10.073753 2.151451,-1.88402 4.657787,-6.521902 5.632143,-9.936003 0.255478,-1.73883 2.286668,-3.609991 0.965669,-0.405284 -1.093165,3.184746 -2.860102,5.788909 -4.168731,8.793531 -2.271503,4.844379 2.19737,-1.212444 3.198483,-2.51829 0.835091,-1.266067 3.711518,-5.077803 1.676872,-1.164604 -1.817316,4.439002 -3.965013,6.940513 -7.229047,10.396883 -0.693665,1.66984 3.793006,-2.32231 4.640707,-3.00511 2.90651,-1.312699 4.170709,-4.365807 5.59633,-5.829375 -1.180356,1.415856 -1.963604,4.793612 -4.774524,6.895625 -1.360136,1.0003 -4.359063,3.9924 -0.884,1.86972 1.048882,-0.71982 4.860517,-2.71491 2.229982,-0.23568 -2.340205,1.23118 -5.542917,3.00754 -8.512221,3.85746 -2.406652,1.76981 -3.885224,1.46665 -3.218697,-1.69841 0.163173,-1.63562 0.566687,-4.5969 -0.08786,-1.38544 -0.514168,2.84638 -1.767764,5.17925 0.21753,5.67418 1.775399,-0.92631 -1.60011,3.90302 -0.77807,6.29932 0.03043,3.57115 0.313917,2.23016 2.431337,5.89539 0.202153,1.85474 -3.576823,-0.64306 -3.989309,2.12345 -6.22844,1.97068 -6.589136,-1.16933 -7.080767,-2.54912 -0.511356,-2.7459 -3.099472,-8.77143 -6.519858,-10.87281 C 9.4154513,74.340989 5.5005539,72.554059 2.8710872,69.326579 -1.5090946,62.702855 0.45468021,56.627162 0.34936919,49.936187 0.84464854,47.446219 1.2229268,43.60518 3.7863691,47.100667 5.3233022,48.17284 12.847075,53.682199 11.52097,52.321169 11.389568,50.089957 11.47488,48.517679 9.8405924,45.848683 8.9298795,43.877016 9.4429992,39.242759 9.6965504,44.051087 c -0.018429,0.600688 0.3387066,1.365961 0.5512536,1.762582 1.056182,1.44941 1.987409,3.471874 1.193788,3.153939 0.996312,-1.991377 -1.630714,-4.344172 -1.048511,-5.636079 -0.7602869,-1.615474 1.017212,-6.130453 0.03914,-8.531301 -0.212601,-1.879783 0.597139,-1.853534 0.276902,-2.884102 0.272521,-3.523865 0.83988,-3.717882 0.08835,-7.682198 -0.613546,-1.173572 -0.299189,3.767039 -0.661836,3.557696 -0.09994,-2.135893 -0.2006322,-7.978392 1.680449,-7.30276 0.89495,3.753377 1.535507,7.65259 1.909043,11.553537 0.201643,4.251263 0.77393,8.607935 -0.08994,12.811743 -2.243722,4.146759 -0.516614,7.9708 -0.398823,12.396806 0.125218,1.834072 1.749404,7.926759 1.801996,7.727227 -0.275785,-2.553746 -3.484577,-13.232018 -0.862521,-9.49141 0.596256,0.50013 2.321982,3.984095 2.480532,2.808659 0.193418,-1.433976 0.319478,-1.541855 0.348948,-2.961269 0.07048,-0.473958 0.06837,-1.154296 0.228617,-1.473852 0.162264,-0.635048 0.228,-1.0817 0.249945,-1.299484 0.416481,-2.08344 2.322907,-4.530345 2.323198,-0.141102 0.09894,0.347843 0.229204,0.734575 0.157356,1.331197 0.234628,0.844078 0.09738,1.218031 0.102954,1.722073 0.0099,0.891297 -0.06189,-0.323027 0.07932,1.228919 0.592379,2.682716 -1.47786,7.437236 0.602193,8.784951 0.664387,2.2432 -0.896958,8.312 -0.644967,12.02724 0.690994,2.92806 1.571014,5.61351 1.93554,6.8869 0.457775,1.43287 2.11969,4.39345 -0.405872,1.46272 -0.38399,-0.54832 -0.650112,-0.5841 -0.828235,-0.60529 -0.102301,2.19193 3.555409,2.83795 1.818782,3.79342 2.022905,0.55592 3.811205,-1.70243 7.356526,-2.13234 -2.447919,-0.50468 -3.787337,0.31041 -4.098527,-0.72022 0.959535,-2.21047 1.481549,-0.51269 1.392734,-3.61016 -0.229898,-0.51875 0.02859,-0.91919 -0.45309,-1.15498 0.525655,-2.4342 0.35327,-2.90454 -0.381737,-0.29378 -0.04238,2.24915 -3.205289,6.4922 -4.384291,2.23257 0.470797,-1.81701 -2.602653,-6.17082 -1.536894,-6.13353 -0.0071,-3.94027 1.069781,-4.83631 1.625023,-6.1187 0.74371,0.7566 1.959161,0.7641 2.418201,3.65519 0.418212,-1.02603 1.141974,-1.63715 1.378894,-3.37942 0.383442,-1.49738 0.481859,-1.34522 0.491205,-2.04573 0.218979,-2.31612 -1.889715,-6.35633 -1.714561,-8.133794 0.43101,2.18214 2.97493,6.128154 2.280752,2.433808 -0.208388,-1.950196 0.696822,-5.855341 1.148513,-1.633948 0.30248,2.460645 -0.314686,4.759504 -0.765043,6.734824 0.01774,0.28094 -0.702894,2.97124 -1.342489,6.06296 -1.182402,4.46567 -4.142093,-3.90258 -3.864794,-0.0325 0.792601,2.04757 -0.356094,1.17225 2.058063,1.64635 0.579694,2.76719 -2.115266,5.63365 -0.452918,6.41609 0.733629,-3.48912 5.777682,-14.74117 4.708522,-23.681068 -1.172767,-1.652554 -0.676237,-8.310904 -1.622416,-2.810728 -0.02909,1.9824 -0.04126,7.608497 -1.691942,2.913327 -0.868531,0.697686 0.0021,4.34417 -0.699008,1.248907 -0.647484,-4.011307 0.939806,-8.567157 3.591051,-11.261655 0.285935,-4.405954 -0.08792,-3.682528 0.166375,-8.090526 0.07004,-0.742603 0.144755,-0.927008 0.134379,-1.474771 M 17.916377,78.796609 c 0.760077,1.87126 -2.233316,-2.21598 -2.461456,-2.83302 -2.68042,-1.94099 -3.186448,-2.09543 -3.186448,-2.09543 0,0 -0.463772,-0.77034 -1.210257,-1.27338 -1.1705637,-1.10444 -4.4850098,-4.50373 -1.507296,-0.76255 2.033317,2.61308 4.402569,3.85372 6.628935,6.26395 8.587189,10.78539 2.512527,0.40624 1.736522,0.70043 z M 29.381402,61.951763 c 0,0 0.06708,-0.04284 0.274167,-7.054456 -0.155994,-1.864051 -0.03517,-5.492392 -0.495277,-7.017165 -0.336505,4.431607 0.343843,8.907748 -0.141261,13.356013 -0.575182,6.370294 -0.32096,6.133804 -0.32096,6.133804 0.404797,-1.6243 0.455554,-3.612139 0.683331,-5.418196 z m -1.453314,15.502836 c 1.013507,-3.56651 -1.408501,2.65799 0,0 z m -10.185174,-1.55078 c -0.468162,-0.55608 -0.947104,-0.43377 -1.175263,-1.36278 -1.410269,-2.46194 -7.0403888,-6.97779 -1.317575,-0.52663 1.134486,1.0723 2.694611,3.41091 2.492838,1.88941 z m 1.814797,-0.2656 c 0.143317,-4.31868 -0.410313,-7.18392 -0.719127,-10.834006 -0.249454,-0.001 0.722457,16.915796 0.719153,10.834006 l 3.2e-5,0 0.271813,0.0799 z m -9.336292,-1.39802 c -1.8858524,-1.57441 -7.2476982,-4.60101 -6.3121628,-6.31253 1.3442971,0.88624 0.8923054,1.12351 0.2780063,-0.77771 -0.7104608,-1.33233 -1.5729901,-1.64478 -1.6447911,-5.021304 0.7049452,1.761444 3.345944,-2.660305 0.8706525,-4.92147 -1.2355983,-2.181847 -2.3158892,-6.194322 -1.8224737,-1.712264 0.8502076,2.184256 2.3542106,7.542398 -0.2825961,4.59131 -0.79901845,2.225892 2.0177812,4.644002 1.3596661,6.584178 -1.4665982,-1.726739 0.2026172,1.25428 0.6782776,2.22917 0.3524968,0.78506 2.5843818,3.01123 4.1184252,3.81746 1.0285584,0.83267 1.9538399,0.76583 2.756996,1.52316 z m 8.219765,-0.6473 c -0.570535,-1.75581 -0.441361,-3.62997 -0.334099,-3.74167 -0.09116,-2.11633 -0.376243,-3.1876 -0.376243,-3.1876 -1.188875,-2.696913 -3.416573,-7.712312 -3.610989,-9.296761 -0.08774,1.154 0.575605,2.137551 0.724255,3.671203 0.615597,0.997848 0.608425,1.447008 0.910267,1.905972 0.929306,2.700386 2.443199,8.265486 1.852735,8.906806 -0.329876,0.26033 0.910619,2.65198 0.834074,1.74205 z m -5.596352,-0.84062 C 10.285948,70.127759 9.3272089,66.369579 7.0857406,63.49663 4.2808015,58.482608 5.3803562,60.186215 4.9524703,62.187239 c 2.2467436,3.7668 4.7530022,7.51994 7.8923617,10.56504 z m -3.8441656,-0.49818 c -0.7120845,-0.75757 -1.7641169,-1.97455 -2.2860762,-3.14254 -1.3119739,-1.8242 -0.9693518,-2.87256 -0.8589532,-0.80435 0.6413858,1.68636 2.2792166,3.5091 3.1450294,3.94689 z m 7.0432346,-0.59855 c -0.749232,-1.54751 -3.34333,-5.48235 -2.86203,-5.2918 -1.940497,-1.916805 -3.2284511,-3.204282 -4.3829196,-4.578414 1.6076266,1.043988 5.1333896,4.148034 6.0783696,5.053044 -0.480764,-1.16731 3.044171,4.55181 1.448426,0.80073 -1.90098,-3.640979 -5.593025,-6.317046 -9.2303526,-7.772095 -2.5595388,0.282025 -2.5285029,-1.538334 2.8132113,4.77721 1.9382603,1.723195 0.6154763,0.421165 6.1352953,7.011325 z m 4.096426,-0.75973 c 0.831023,-1.91541 -0.936215,-7.990668 -0.392785,-3.01712 0.170756,0.60304 0.617802,1.98621 0.392785,3.01712 z M 7.7678643,68.951329 c -2.3486979,-5.450582 -2.7829647,-6.031454 -2.9419845,-5.24087 0.6468862,2.45842 1.1644711,3.47511 2.9419845,5.24087 z M 18.949072,63.336707 c 1.86361,-0.494748 -0.409948,-0.7161 0,0 z m -5.587906,-0.791448 c 0.04566,-3.444874 -2.842062,-5.050818 -4.7221241,-8.071751 -2.1245797,-3.338045 -2.3824417,-3.392261 -1.1079152,0.341859 0.8422615,1.146583 1.7351249,4.989218 -0.081159,1.739687 -2.2244179,-2.576831 -5.1425003,-8.60997 -5.5864232,-9.820437 0.3861525,4.371931 2.9260204,8.232433 4.2542318,12.173339 0,0 0.3719428,0.514567 0.2965568,-0.319162 -0.6226167,-4.315809 4.5389039,3.877529 3.8686709,0.420052 0.975949,-0.392952 2.629039,4.793582 3.078162,3.536413 z m 4.589177,0.762396 c -0.942657,-1.702548 0.519628,1.937954 0,0 z M 11.634577,62.375183 11.116271,61.882355 z M 19.336,62.150015 c -0.311896,-0.81186 -0.884444,0.925332 0,0 z m -0.978,0.443556 c -0.554701,-0.4005 0.225359,1.000492 0,0 z m -1.012206,-1.310532 c -1.20536,-3.903942 0.828882,4.44894 0,0 z m 0.642624,0.608088 c -0.04539,-1.622184 -0.829441,0.164748 0,0 z m 1.474337,-0.367824 c 0.396549,-0.767556 -0.455365,0.326892 0,0 z m -0.338552,-0.07225 c 0.08418,-1.491295 -0.919717,0.535284 0,0 z m 0.579474,-0.95592 c -0.877333,-0.763935 0.392719,1.54512 0,0 z m -1.072759,0.02639 c -0.05631,-1.657413 -0.88984,0.857088 0,0 z m 0.664955,-0.489888 c 0.46735,-1.444227 -1.209697,-0.0083 0,0 z m -2.441257,-0.980288 c -0.23722,-0.05829 0.178772,1.251116 0,0 z m 2.94764,0.01788 c -0.270172,-1.67864 -0.60022,0.955954 0,0 z m -1.111522,-0.02134 c 0.171315,-1.15007 -0.85598,0.586807 0,0 z m -0.707128,-1.09231 c -0.458794,-9.41877 -1.322543,2.487355 0,0 z m 1.416776,0.360272 c -0.217859,-1.565637 -0.908039,0.941253 0,0 z m -0.605126,-0.78087 c -0.157241,-1.296827 -0.85963,0.432982 0,0 z m 0.849015,0.04751 c 0.743588,-1.070046 -0.948567,0.23221 0,0 z m -4.378928,-0.765592 c -0.226371,-0.401023 -0.132774,0.392653 0,0 z m 4.470458,-0.299029 c -0.26265,-1.483063 -0.917735,0.856058 0,0 z m -6.918927,1.427429 c -0.07203,-1.289883 -1.083363,-10.137374 -0.60851,-2.622096 0.02337,0.170318 0.385484,2.959287 0.60851,2.622096 z m 5.978382,-2.060404 c -0.551365,-1.306018 -0.480186,1.291555 0,0 z M 19.41654,55.0036 c -0.633442,-0.975003 -0.309489,1.057143 0,0 z m -0.861303,-0.02221 c 0.163947,-0.978931 -1.140289,-0.550006 0,0 z m 0.927892,-1.437209 c -0.699878,-0.887245 -0.363033,1.090876 0,0 z m -1.176511,0.14416 c 0.034,-1.356222 -0.969169,0.123701 0,0 z m 0.941195,-1.218654 c 0.0589,-1.219281 -0.905938,0.428449 0,0 z m -0.686229,-0.228669 c -1.07207,0.180939 0.06228,1.271045 0,0 z m -0.108531,-0.351509 c 0.355627,-1.94779 -0.869414,0.416678 0,0 z m 1.000169,-0.258226 c 0.06075,-1.277732 -0.633343,1.035047 0,0 z M 18.733749,50.95828 c -0.08339,-1.198438 -0.596666,0.497944 0,0 z m -6.757126,-0.715472 c -0.02881,-3.932827 -0.279549,2.142465 0,0 z m 37.918332,0.412488 c -0.09833,-0.55271 -0.224343,0.566491 0,0 z M 19.097817,50.454289 c -0.185375,-0.392791 -0.300448,0.229736 0,0 z m 9.725114,-1.623456 c -0.04937,-1.983437 -0.248176,-7.44909 -0.403929,-2.558649 -0.06328,0.862411 -0.0039,1.783397 0.403929,2.558649 z m -16.68408,-1.949234 c -0.377437,-0.916369 -0.328901,0.557093 0,0 z m 36.982683,-0.599584 c -0.20263,0.194964 0.238913,0.612398 0,0 z M 11.867037,45.291102 c -0.487489,-1.786855 -0.438589,1.077453 0,0 z m 0.825225,0.136742 c -0.01897,-1.342161 -0.982736,0.323463 0,0 z m -1.485343,-1.466911 c 0.108001,-1.347794 -0.968984,-0.07363 0,0 z m 1.802123,0.255244 c 0.256536,-1.650744 -1.244711,0.606512 0,0 z m 0.309905,-1.234702 c -0.147676,-1.378219 -0.687239,0.621659 0,0 z m -1.09488,0.537266 c 0.02372,-2.482681 -0.886304,0.717327 0,0 z m 0.721619,-1.294809 c -0.255141,-1.648464 -0.886374,0.810786 0,0 z m -1.254738,-0.01835 c 0.103502,-1.954543 -1.555064,0.700165 0,0 z m 1.988085,-0.787258 c 0.193136,-2.175435 -0.960443,0.728717 0,0 z m -1.817517,-0.431278 c 0.07801,-2.020295 -1.9149083,-1.391671 0,0 z m 1.136875,-0.262191 c -0.23441,-2.277016 -1.085944,0.33618 0,0 z m 0.303805,-1.808285 c -0.804539,-1.749126 -0.602797,1.611666 0,0 z m -0.987189,0.05237 c -0.563601,-1.97387 -1.105268,1.845941 0,0 z m 1.530553,-1.474542 c -0.910243,-0.625139 -0.197463,2.042837 0,0 z m -0.93528,0.3654 c -0.06007,-3.139586 -1.502513,0.817264 0,0 z m -1.394091,0.07507 c -0.158865,-2.923542 -0.840546,0.740761 0,0 z m 1.886862,-1.928991 c -0.400216,-1.794975 -0.779214,1.222316 0,0 z m -1.218335,-0.101733 c -1.000008,-2.988593 -1.443175,1.556718 0,0 z m 1.118285,-1.340647 c 0.316871,-1.750295 -1.403251,0.695794 0,0 z M 11.91039,34.060969 c 0.267023,-1.954524 -1.711918,0.444523 0,0 z m 0.97915,-0.774384 c -0.139814,-2.10806 -1.027049,0.949537 0,0 z m -0.848195,-1.043268 c 0.623433,-1.296329 -1.597864,0.45037 0,0 z m 1.20536,-0.512923 c -0.249186,-1.719847 -1.431776,0.618952 0,0 z m -1.514482,-0.724891 c -0.189084,-1.379597 -1.015086,0.782649 0,0 z m 0.574864,-0.758814 c -0.167756,-1.468872 -0.730176,0.680718 0,0 z m 0.568495,-0.841157 c -0.169921,-1.528021 -0.941437,1.140615 0,0 z m 0.542419,0.674434 c -0.237219,-0.05829 0.217604,0.573316 0,0 z m -1.699456,-0.641364 c -0.18494,-1.455966 -0.606953,0.844944 0,0 z m 0.467215,-0.991259 c -0.516113,-1.845437 -0.71039,0.55827 0,0 z m 0.364588,-1.165825 c -0.412596,-2.21134 -0.626189,1.055213 0,0 z M 11.836287,26.74228 c -0.391279,-1.650647 -0.763566,0.371586 0,0 z m 0.406767,-0.936034 c -0.221613,-2.088797 -1.3291,0.290785 0,0 z m -0.130797,-1.679778 c -1.021671,-1.839147 -0.676984,1.442185 0,0 z M 11.975448,22.86682 c -0.677397,-2.264245 -1.328584,0.04857 0,0 z m 16.908477,49.166729 c 0.306301,-1.68028 0.423011,0.31099 0,0 z M 17.793338,59.181635 c -0.533312,-1.265903 -0.688823,2.439744 0,0 z M 10.928594,47.335381 c 0.329438,-0.396 0.148492,0.555685 0,0 z M 9.3979812,41.283457 c 0.3394927,-4.45187 -0.1529753,-9.354888 0.7204358,-13.737015 0.458197,0.378313 -0.2511689,7.73117 -0.08866,8.807738 0.04682,0.567523 0.13771,0.917268 -0.1158727,2.68917 0.2965397,1.226631 -0.1288096,1.206159 -0.1371638,1.376733 0.1436452,0.581829 -0.7110371,2.802989 -0.3787363,0.863374 z m 4.6650698,-2.442199 c 0.08575,-0.390319 0.08062,0.496917 0,0 z m 14.311631,0.880257 c 0.246539,-6.686841 0.60851,-6.274305 -1.0715,-7.93474 -0.888817,-4.979965 -0.113625,-11.246054 0.04525,-16.328872 0.406791,-0.0034 0.696184,0.03502 0.643004,3.129806 -0.161525,1.188661 -0.190578,1.607364 -0.422213,3.071132 0.074,2.001352 -0.03206,1.957592 -0.105026,4.162214 0.352367,1.968019 0.211991,2.532555 0.171424,4.483899 0.137385,0.643934 0.953485,2.781511 1.177439,0.549555 -0.341162,-2.517969 -0.151118,-4.891218 -0.485207,-7.948351 0.09973,-2.077103 -0.03836,-2.263247 0.593132,-3.594714 -0.304098,-1.42076 0.13356,-3.938639 -0.425388,-4.716406 0.512264,-3.252238 0.137048,-7.021526 0.139748,-7.790347 -0.180081,-0.534013 -1.302107,-3.385915 -1.074719,-0.314043 0.0062,0.974021 0.218272,1.153762 0.06951,2.10453 0.503352,1.50504 0.49833,8.975906 -0.270877,6.867807 C 27.746486,10.41523 26.358793,4.446427 27.873779,0 c 1.850708,0.763969 1.640704,1.746324 2.266682,4.566893 1.274663,6.234729 1.009489,7.095191 1.365641,10.45667 0.15018,4.820816 0.717149,9.679441 0.377164,14.487382 -0.45979,3.091668 -1.676153,2.492378 -2.221004,5.253302 -0.216046,0.952437 -0.105823,4.287639 -0.287619,4.599542 -0.1818,0.311901 -0.346931,0.163901 -0.999964,0.357726 z m 1.535804,-6.712972 c -0.619365,-1.833897 -1.405015,0.120597 0,0 z m 0.179271,-1.476189 c 0.816786,-1.405624 -1.778552,-1.145169 0,0 z m 1.068179,-1.166367 c -0.879347,-2.530146 -1.171062,0.915937 0,0 z m -1.191012,-0.68866 c -1.218948,-2.087313 -1.120798,1.123394 0,0 z m 0.666479,-2.09843 c -0.845616,1.487532 1.333815,0.905124 0,0 z m -0.578978,0.403248 c -1.139616,-1.863661 -0.859706,1.374656 0,0 z m 0.340411,-1.22317 c 0.462934,-3.141303 -1.597763,1.404591 0,0 z m 1.255344,-0.880996 c -1.13044,-0.792141 -0.389668,2.893372 0,0 z m -1.974507,-0.06358 c -0.0643,-1.66743 -1.073758,1.826426 0,0 z m 1.648229,-1.146695 c -0.752228,-1.408132 -1.014028,1.654635 0,0 z m -1.112066,-0.23465 c -1.617319,-2.02164 -1.056871,1.284899 0,0 z m 0.290141,-0.696613 c 0.703364,-2.828278 -1.632787,0.132311 0,0 z m -0.916874,-1.30509 c -0.534271,-1.227267 -1.268826,2.179299 0,0 z m 1.881629,0.389324 c -1.052299,0.352765 0.38598,1.311191 0,0 z M 29.68835,21.433039 c 0.232746,-2.721874 -1.684305,0.695294 0,0 z m 1.589686,0.440033 c -0.185374,-1.868003 -1.310041,0.349347 0,0 z m -0.653084,-1.142805 c 0.203782,-2.124223 -1.280879,1.50789 0,0 z m 0.81161,-0.949545 c -1.268135,-1.603265 -0.08721,2.068995 0,0 z m -1.587671,-0.25 c 0.376147,-2.356848 -1.227035,1.124273 0,0 z m 0.223387,-3.197474 c -0.407548,-2.796699 -1.490944,0.736674 0,0 z m 0.747425,2.738137 c -0.118807,-2.606329 -1.31358,0.466696 0,0 z m -0.786402,-1.182043 c -0.682188,-2.279303 -1.567867,0.719035 0,0 z m 1.10209,-0.512486 c 0.09276,-2.917393 -1.250177,0.549071 0,0 z m -0.509534,-1.765751 c -0.444561,-1.758748 -0.631862,0.73525 0,0 z m 0.261015,-2.541811 c 0.49422,-1.02412 -1.049945,-0.599641 0,0 z m -1.112046,1.183517 c -1.385563,-1.742912 -0.542049,1.575548 0,0 z m 1.154703,0.357176 c 0.02007,-2.063532 -1.491197,-0.559079 0,0 z m -0.841742,-1.312622 c 0.0285,-1.934463 -1.34186,0.952632 0,0 z m -0.34917,-1.430106 c 0.08746,-2.001699 -1.206048,0.705015 0,0 z m 0.927197,-0.04371 c -0.198048,-2.689614 -1.071908,0.519486 0,0 z m -0.792193,-1.204704 c -0.178,-2.944251 -1.410554,0.725307 0,0 z m 0.698614,-1.368484 c -0.731043,-2.09326 -0.594186,2.411088 0,0 z M 29.733119,8.489173 c -0.496634,-2.845252 -0.687235,0.98477 0,0 z M 30.04672,7.030575 c -1.011962,-0.239467 0.884126,1.976233 0,0 z M 29.911886,6.172242 c -1.557065,-1.272018 -0.372226,1.333862 0,0 z M 29.60233,5.116198 c -0.676085,-1.87314 -1.628584,0.152965 0,0 z M 28.415269,4.900695 c -0.032,-2.349861 -1.222537,0.31626 0,0 z M 28.198444,3.376962 c -0.120908,-1.010361 -0.831481,0.119617 0,0 z m 0.825993,0.345105 c 0.835655,-1.760024 -1.369674,-0.498891 0,0 z M 28.679757,2.44016 c 0.440942,-2.318722 -1.762426,0.04205 0,0 z"
     id="path3063"
     inkscape:connector-curvature="0"
     sodipodi:nodetypes="cccccccccccccccccccccccccccccccccccccccccccccccccccccccccccccccccccccccccccscccccscccccccccccccccccccccccccccccccccccccccccccccccccccccccccccccccccccccccccccccccccccccccccccccccccccccccccccccccccccccccccccccccccccccccccccccccccccccccccccccccccccccccccccccccccccccccccccccccccccccccccccccccccccccccccccccccccccccccccccccccccccccccccccccccccccccccccccccccccccccccccccccccccsccccccccccccccccccccccccccccccccccccccccccccccccccccccccccccccccccccccccccccccccc" />
</svg>
